<svg width="16" height="25" viewBox="0 0 16 25" fill="none" xmlns="http://www.w3.org/2000/svg">
<g filter="url(#filter0_i_1102_3644)">
<path d="M0 1.96086C0 0.812107 0.935137 -0.133056 2.0742 0.0158671C4.31913 0.309375 6.48447 1.07717 8.42281 2.27732C10.9529 3.84387 12.996 6.08499 14.3225 8.74882C15.649 11.4127 16.2063 14.3936 15.9318 17.3568C15.7215 19.6269 15.0294 21.8176 13.9108 23.786C13.3432 24.7847 12.0254 24.9614 11.1087 24.2692C10.1919 23.5769 10.029 22.2782 10.5503 21.2545C11.2279 19.9242 11.6507 18.472 11.7895 16.973C11.9927 14.7803 11.5802 12.5744 10.5986 10.6031C9.61705 8.63191 8.10516 6.97349 6.23288 5.81424C4.95295 5.02176 3.53928 4.48403 2.06935 4.22309C0.938278 4.02231 0 3.10961 0 1.96086Z" fill="#E5AE21"/>
</g>
<defs>
<filter id="filter0_i_1102_3644" x="0" y="0" width="16" height="25.6855" filterUnits="userSpaceOnUse" color-interpolation-filters="sRGB">
<feFlood flood-opacity="0" result="BackgroundImageFix"/>
<feBlend mode="normal" in="SourceGraphic" in2="BackgroundImageFix" result="shape"/>
<feColorMatrix in="SourceAlpha" type="matrix" values="0 0 0 0 0 0 0 0 0 0 0 0 0 0 0 0 0 0 127 0" result="hardAlpha"/>
<feOffset dy="3"/>
<feGaussianBlur stdDeviation="0.5"/>
<feComposite in2="hardAlpha" operator="arithmetic" k2="-1" k3="1"/>
<feColorMatrix type="matrix" values="0 0 0 0 1 0 0 0 0 1 0 0 0 0 1 0 0 0 0.25 0"/>
<feBlend mode="normal" in2="shape" result="effect1_innerShadow_1102_3644"/>
</filter>
</defs>
</svg>
