<svg width="31" height="29" viewBox="0 0 31 29" fill="none" xmlns="http://www.w3.org/2000/svg">
<g filter="url(#filter0_i_1102_3655)">
<path d="M1.41265 16.5198C0.305389 16.8688 -0.321512 18.0574 0.168115 19.11C0.947814 20.7863 2.01149 22.3214 3.31697 23.645C5.11604 25.4692 7.32282 26.8397 9.75546 27.6437C12.1881 28.4478 14.777 28.6622 17.3088 28.2694C19.8406 27.8767 22.2428 26.8879 24.3175 25.3847C26.3922 23.8814 28.08 21.9067 29.2418 19.6232C30.4037 17.3397 31.0062 14.8128 31 12.2507C30.9937 9.68866 30.3787 7.16476 29.2056 4.887C28.3544 3.23417 27.2271 1.74528 25.877 0.482233C25.0292 -0.31092 23.7046 -0.085402 23.028 0.85806C22.3515 1.80152 22.5845 3.10371 23.3952 3.93475C24.2225 4.78277 24.922 5.75176 25.4679 6.8119C26.336 8.49744 26.7911 10.3651 26.7957 12.261C26.8004 14.157 26.3545 16.0269 25.4947 17.7167C24.635 19.4064 23.386 20.8678 21.8507 21.9802C20.3154 23.0926 18.5378 23.8243 16.6643 24.1149C14.7907 24.4056 12.875 24.2469 11.0748 23.6519C9.27465 23.0569 7.64163 22.0427 6.31032 20.6928C5.47298 19.8438 4.77007 18.8773 4.22191 17.8271C3.68473 16.7979 2.51991 16.1708 1.41265 16.5198Z" fill="#EE201C"/>
</g>
<defs>
<filter id="filter0_i_1102_3655" x="0" y="0" width="31" height="29.4712" filterUnits="userSpaceOnUse" color-interpolation-filters="sRGB">
<feFlood flood-opacity="0" result="BackgroundImageFix"/>
<feBlend mode="normal" in="SourceGraphic" in2="BackgroundImageFix" result="shape"/>
<feColorMatrix in="SourceAlpha" type="matrix" values="0 0 0 0 0 0 0 0 0 0 0 0 0 0 0 0 0 0 127 0" result="hardAlpha"/>
<feOffset dy="3"/>
<feGaussianBlur stdDeviation="0.5"/>
<feComposite in2="hardAlpha" operator="arithmetic" k2="-1" k3="1"/>
<feColorMatrix type="matrix" values="0 0 0 0 1 0 0 0 0 1 0 0 0 0 1 0 0 0 0.25 0"/>
<feBlend mode="normal" in2="shape" result="effect1_innerShadow_1102_3655"/>
</filter>
</defs>
</svg>
