<svg width="180" height="210" viewBox="0 0 180 210" fill="none" xmlns="http://www.w3.org/2000/svg">
<path d="M0.000395266 179.246C12.2102 191.456 27.2429 200.466 43.7667 205.479C60.2905 210.491 77.7954 211.351 94.731 207.982C111.667 204.614 127.51 197.12 140.858 186.166C154.206 175.212 164.646 161.135 171.254 145.182C177.862 129.229 180.433 111.892 178.741 94.7081C177.048 77.5239 171.144 61.0223 161.551 46.6651C151.958 32.3078 138.972 20.538 123.743 12.3983C108.515 4.25849 91.5139 1.30365e-06 74.2465 0V29.8773C86.6005 29.8773 98.7638 32.9241 109.659 38.7477C120.554 44.5713 129.845 52.9921 136.709 63.264C143.572 73.536 147.796 85.3421 149.007 97.6366C150.218 109.931 148.378 122.334 143.651 133.748C138.923 145.162 131.454 155.233 121.904 163.07C112.354 170.908 101.019 176.269 88.9022 178.679C76.7856 181.089 64.2616 180.474 52.4396 176.888C40.6176 173.302 29.8624 166.855 21.1268 158.12L0.000395266 179.246Z" fill="#98A8D4"/>
</svg>
