<svg width="22" height="22" viewBox="0 0 22 22" fill="none" xmlns="http://www.w3.org/2000/svg">
<path d="M6.30763 1.12988H10.6813C11.6831 1.12988 12.2496 1.27524 12.9151 1.92738L12.9921 2.00438L18.0749 7.17006C18.6846 7.7947 18.8779 8.25592 18.9262 9.06953L18.9356 9.28049L18.9396 9.50795L18.9403 17.989C18.9403 19.8656 18.0293 20.8321 16.199 20.8698L16.0858 20.871H6.30763C4.44863 20.871 3.49202 19.9513 3.4543 18.1033L3.45312 17.989V4.02092C3.45312 2.14424 4.3728 1.16917 6.19488 1.13106L6.30763 1.12988ZM10.4786 2.61213H6.39052C5.46338 2.61213 4.96838 3.10399 4.93695 3.9616L4.93538 4.04881V17.9615C4.93538 18.8525 5.4013 19.3553 6.29073 19.3867L6.38109 19.3887H16.0124C16.9391 19.3887 17.4259 18.9141 17.4565 18.0491L17.4581 17.9615V9.69299H12.2095C11.1005 9.69299 10.5124 9.15438 10.4798 8.05988L10.4786 7.96167V2.61213ZM11.1987 15.1655C13.2584 15.1655 14.5427 16.581 14.5427 17.6067C14.5427 17.9414 14.3388 18.1198 13.7747 18.1347L13.6957 18.1355H8.7017C8.07352 18.1355 7.85077 17.9567 7.85077 17.6067C7.85077 16.5813 9.13541 15.1655 11.1987 15.1655ZM11.1987 10.9867C12.0496 10.9867 12.789 11.7142 12.789 12.6964C12.789 13.6903 12.0536 14.454 11.1987 14.454C10.3478 14.454 9.60841 13.6903 9.60841 12.7046C9.60841 11.7303 10.3478 10.9867 11.1987 10.9867ZM11.8689 2.89774V7.78685C11.8689 8.13374 11.9993 8.2846 12.314 8.3011L12.3753 8.30267H17.1721L11.8689 2.89774Z" fill="black"/>
</svg>
