<svg width="22" height="22" viewBox="0 0 22 22" fill="none" xmlns="http://www.w3.org/2000/svg">
<path d="M16.4997 12.5713C17.1249 12.5713 17.7244 12.8196 18.1665 13.2617C18.6085 13.7037 18.8569 14.3033 18.8569 14.9284V15.4902C18.8569 18.3007 15.549 20.4284 10.9997 20.4284C6.45044 20.4284 3.14258 18.4115 3.14258 15.4902V14.9284C3.14258 14.3033 3.39092 13.7037 3.83297 13.2617C4.27502 12.8196 4.87457 12.5713 5.49972 12.5713H16.4997ZM16.4997 13.7499H5.49972C5.20686 13.7499 4.9245 13.8589 4.70764 14.0557C4.49078 14.2525 4.35496 14.523 4.32665 14.8145L4.32115 14.9284V15.4902C4.32115 17.5912 6.98394 19.2499 10.9997 19.2499C14.8701 19.2499 17.5644 17.5959 17.6751 15.6167L17.6783 15.4902V14.9284C17.6783 14.6356 17.5693 14.3532 17.3725 14.1363C17.1756 13.9195 16.9051 13.7837 16.6136 13.7554L16.4997 13.7499ZM10.9997 1.57129C11.6188 1.57129 12.2318 1.69323 12.8038 1.93014C13.3758 2.16706 13.8955 2.51431 14.3332 2.95207C14.771 3.38983 15.1182 3.90953 15.3552 4.4815C15.5921 5.05346 15.714 5.66649 15.714 6.28557C15.714 6.90466 15.5921 7.51769 15.3552 8.08965C15.1182 8.66162 14.771 9.18132 14.3332 9.61908C13.8955 10.0568 13.3758 10.4041 12.8038 10.641C12.2318 10.8779 11.6188 10.9999 10.9997 10.9999C9.74941 10.9999 8.55032 10.5032 7.66622 9.61908C6.78212 8.73498 6.28544 7.53588 6.28544 6.28557C6.28544 5.03527 6.78212 3.83617 7.66622 2.95207C8.55032 2.06797 9.74941 1.57129 10.9997 1.57129ZM10.9997 2.74986C10.062 2.74986 9.16267 3.12237 8.49959 3.78545C7.83652 4.44852 7.46401 5.34785 7.46401 6.28557C7.46401 7.2233 7.83652 8.12263 8.49959 8.7857C9.16267 9.44878 10.062 9.82129 10.9997 9.82129C11.9375 9.82129 12.8368 9.44878 13.4998 8.7857C14.1629 8.12263 14.5354 7.2233 14.5354 6.28557C14.5354 5.34785 14.1629 4.44852 13.4998 3.78545C12.8368 3.12237 11.9375 2.74986 10.9997 2.74986Z" fill="black"/>
</svg>
