<svg width="168" height="28" viewBox="0 0 168 28" fill="none" xmlns="http://www.w3.org/2000/svg">
<path d="M0 27.5076V0H6.00073L8.94506 13.7538V0H13.2851V27.5076H8.59866L4.61516 10.4223V27.5076H0Z" fill="#F34141"/>
<path d="M19.2702 3.95294H26.6821V0H14.8232V27.5076H26.937L26.9291 23.2235H19.2703L19.3619 15.0171L24.9809 15.0171V11.4615L19.2702 11.4615V3.95294Z" fill="#F34141"/>
<path d="M32.551 27.5089L37.0592 27.5076V3.95294H42.0004V0H27.6709V3.95294H32.6121L32.551 27.5089Z" fill="#F34141"/>
<path d="M44.4806 4.13632H51.5918L43.4414 23.4222V27.5076H55.7893V23.3814L47.8121 23.3407L55.7893 4.13632V0H44.5213L44.4806 4.13632Z" fill="#F34141"/>
<path d="M61.7644 3.95294H69.1762V0H57.3174V27.5076H69.4311L69.4233 23.2235H61.7644L61.8561 15.0171L67.475 15.0171V11.4615L61.7644 11.4615V3.95294Z" fill="#F34141"/>
<path d="M73.2724 27.6708C74.4428 27.6708 75.3915 26.7221 75.3915 25.5517C75.3915 24.3814 74.4428 23.4326 73.2724 23.4326C72.1021 23.4326 71.1533 24.3814 71.1533 25.5517C71.1533 26.7221 72.1021 27.6708 73.2724 27.6708Z" fill="#F34141"/>
<path d="M102.349 0.0116823C100.841 -0.0799113 99.3498 0.369382 98.1434 1.27884C96.937 2.1883 96.0946 3.49826 95.7676 4.97323V22.1298C95.9499 23.6104 96.6675 24.9732 97.7849 25.9615C98.9024 26.9498 100.343 27.4954 101.835 27.4954C103.326 27.4954 104.767 26.9498 105.884 25.9615C107.002 24.9732 107.719 23.6104 107.901 22.1298V4.97323C107.661 3.64564 106.985 2.43633 105.979 1.53739C104.973 0.638457 103.695 0.101448 102.349 0.0116823ZM106.302 21.814C106.302 24.2082 104.012 26.4353 101.788 26.4353C100.595 26.2726 99.5266 25.9602 98.7074 25.0779C97.8882 24.1955 97.4002 23.0565 97.3264 21.8547V5.25849C97.6316 4.16038 98.3033 3.19977 99.23 2.53626C100.157 1.87276 101.282 1.5463 102.42 1.61117C103.348 1.82135 104.2 2.28062 104.886 2.93949C105.572 3.59835 106.065 4.43185 106.312 5.35018L106.302 21.814Z" fill="#F34141"/>
<path d="M94.2395 27.5076H92.5614V13.8166H78.5773V27.5076H76.9199V0H78.5773V11.8069H92.5614V0H94.2395V27.5076Z" fill="#F34141"/>
<path d="M130.941 27.6706H129.254V3.31036L120.946 27.6706H119.175L110.887 3.31036V27.6706H109.2V0H111.646L120.06 25.1436L128.537 0H130.941V27.6706Z" fill="#F34141"/>
<path d="M148.73 27.6706H132.424V0H148.173V2.0216H134.073V12.2559H147.287V14.2775H134.073V25.649H148.73V27.6706Z" fill="#F34141"/>
<path d="M159.745 27.6706C158.195 27.6706 156.84 27.4837 155.68 27.1099C154.521 26.7198 153.543 26.1753 152.747 25.4764C151.965 24.7613 151.364 23.908 150.945 22.9166C150.526 21.9089 150.282 20.7794 150.212 19.5279H151.867C152.035 20.7306 152.349 21.7302 152.81 22.5265C153.271 23.3229 153.837 23.9568 154.507 24.4281C155.192 24.8995 155.967 25.2326 156.833 25.4277C157.699 25.6227 158.621 25.7202 159.598 25.7202C160.618 25.7202 161.533 25.5983 162.343 25.3545C163.167 25.0945 163.866 24.7288 164.438 24.2575C165.025 23.7699 165.472 23.1929 165.779 22.5265C166.087 21.8439 166.24 21.08 166.24 20.2349C166.24 19.341 166.107 18.5933 165.842 17.992C165.577 17.3744 165.13 16.838 164.501 16.3829C163.873 15.9279 163.042 15.5215 162.008 15.164C160.988 14.8064 159.717 14.4407 158.195 14.0669C156.937 13.7418 155.855 13.368 154.947 12.9454C154.053 12.5229 153.313 12.0353 152.726 11.4827C152.139 10.9138 151.706 10.2718 151.427 9.55671C151.148 8.82533 151.008 7.98018 151.008 7.02126C151.008 5.98107 151.197 5.03028 151.574 4.16887C151.951 3.30747 152.482 2.56796 153.166 1.95035C153.865 1.33274 154.696 0.853278 155.659 0.511967C156.637 0.170656 157.713 0 158.886 0C160.059 0 161.135 0.162529 162.113 0.487587C163.09 0.796393 163.942 1.25147 164.669 1.85283C165.409 2.45419 166.003 3.18557 166.45 4.04698C166.911 4.90838 167.204 5.88356 167.33 6.9725H165.716C165.563 6.25737 165.311 5.591 164.962 4.97339C164.613 4.35578 164.159 3.82756 163.6 3.38873C163.055 2.93365 162.399 2.58421 161.631 2.34042C160.876 2.08037 160.01 1.95035 159.033 1.95035C156.979 1.95035 155.422 2.38918 154.36 3.26684C153.313 4.14449 152.789 5.34721 152.789 6.87498C152.789 7.57386 152.887 8.18334 153.082 8.70344C153.278 9.22353 153.606 9.69486 154.067 10.1174C154.542 10.5238 155.164 10.8895 155.932 11.2145C156.7 11.5233 157.657 11.8159 158.802 12.0922C159.473 12.2547 160.164 12.4254 160.876 12.6041C161.589 12.7829 162.28 12.9942 162.951 13.238C163.635 13.4818 164.285 13.7825 164.899 14.14C165.514 14.4976 166.045 14.9364 166.492 15.4565C166.953 15.9766 167.316 16.6024 167.581 17.3337C167.86 18.0489 168 18.9021 168 19.8936C168 21.0313 167.791 22.0796 167.372 23.0385C166.967 23.9812 166.394 24.802 165.654 25.5008C164.927 26.1834 164.054 26.7198 163.035 27.1099C162.029 27.4837 160.932 27.6706 159.745 27.6706Z" fill="#F34141"/>
</svg>
