<svg width="22" height="22" viewBox="0 0 22 22" fill="none" xmlns="http://www.w3.org/2000/svg">
<path fill-rule="evenodd" clip-rule="evenodd" d="M13.0344 2.03437C13.6671 1.40163 14.5604 1.14551 15.583 1.14551H17.4163C18.439 1.14551 19.3322 1.40163 19.965 2.03437C20.5977 2.66711 20.8538 3.56037 20.8538 4.58301V6.41634C20.8538 7.43898 20.5977 8.33224 19.965 8.96498C19.3322 9.59772 18.439 9.85384 17.4163 9.85384H15.583C14.5604 9.85384 13.6671 9.59772 13.0344 8.96498C12.4016 8.33224 12.1455 7.43898 12.1455 6.41634V4.58301C12.1455 3.56037 12.4016 2.66711 13.0344 2.03437ZM14.0066 3.00664C13.7227 3.29057 13.5205 3.77232 13.5205 4.58301V6.41634C13.5205 7.22703 13.7227 7.70878 14.0066 7.9927C14.2906 8.27663 14.7723 8.47884 15.583 8.47884H17.4163C18.227 8.47884 18.7088 8.27663 18.9927 7.9927C19.2766 7.70878 19.4788 7.22703 19.4788 6.41634V4.58301C19.4788 3.77232 19.2766 3.29057 18.9927 3.00664C18.7088 2.72272 18.227 2.52051 17.4163 2.52051H15.583C14.7723 2.52051 14.2906 2.72272 14.0066 3.00664Z" fill="white"/>
<path fill-rule="evenodd" clip-rule="evenodd" d="M2.03437 13.0344C2.66711 12.4016 3.56037 12.1455 4.58301 12.1455H6.41634C7.43898 12.1455 8.33224 12.4016 8.96498 13.0344C9.59772 13.6671 9.85384 14.5604 9.85384 15.583V17.4163C9.85384 18.439 9.59772 19.3322 8.96498 19.965C8.33224 20.5977 7.43898 20.8538 6.41634 20.8538H4.58301C3.56037 20.8538 2.66711 20.5977 2.03437 19.965C1.40163 19.3322 1.14551 18.439 1.14551 17.4163V15.583C1.14551 14.5604 1.40163 13.6671 2.03437 13.0344ZM3.00664 14.0066C2.72272 14.2906 2.52051 14.7723 2.52051 15.583V17.4163C2.52051 18.227 2.72272 18.7088 3.00664 18.9927C3.29057 19.2766 3.77232 19.4788 4.58301 19.4788H6.41634C7.22703 19.4788 7.70878 19.2766 7.9927 18.9927C8.27663 18.7088 8.47884 18.227 8.47884 17.4163V15.583C8.47884 14.7723 8.27663 14.2906 7.9927 14.0066C7.70878 13.7227 7.22703 13.5205 6.41634 13.5205H4.58301C3.77232 13.5205 3.29057 13.7227 3.00664 14.0066Z" fill="white"/>
<path fill-rule="evenodd" clip-rule="evenodd" d="M5.49967 2.52051C3.85433 2.52051 2.52051 3.85433 2.52051 5.49967C2.52051 7.14502 3.85433 8.47884 5.49967 8.47884C7.14502 8.47884 8.47884 7.14502 8.47884 5.49967C8.47884 3.85433 7.14502 2.52051 5.49967 2.52051ZM1.14551 5.49967C1.14551 3.09493 3.09493 1.14551 5.49967 1.14551C7.90441 1.14551 9.85384 3.09493 9.85384 5.49967C9.85384 7.90441 7.90441 9.85384 5.49967 9.85384C3.09493 9.85384 1.14551 7.90441 1.14551 5.49967Z" fill="white"/>
<path fill-rule="evenodd" clip-rule="evenodd" d="M16.4997 13.5205C14.8543 13.5205 13.5205 14.8543 13.5205 16.4997C13.5205 18.145 14.8543 19.4788 16.4997 19.4788C18.145 19.4788 19.4788 18.145 19.4788 16.4997C19.4788 14.8543 18.145 13.5205 16.4997 13.5205ZM12.1455 16.4997C12.1455 14.0949 14.0949 12.1455 16.4997 12.1455C18.9044 12.1455 20.8538 14.0949 20.8538 16.4997C20.8538 18.9044 18.9044 20.8538 16.4997 20.8538C14.0949 20.8538 12.1455 18.9044 12.1455 16.4997Z" fill="white"/>
</svg>
