<svg width="22" height="22" viewBox="0 0 22 22" fill="none" xmlns="http://www.w3.org/2000/svg">
<path fill-rule="evenodd" clip-rule="evenodd" d="M10.5413 2.52051C6.11156 2.52051 2.52051 6.11156 2.52051 10.5413C2.52051 14.9711 6.11156 18.5622 10.5413 18.5622C14.9711 18.5622 18.5622 14.9711 18.5622 10.5413C18.5622 6.11156 14.9711 2.52051 10.5413 2.52051ZM1.14551 10.5413C1.14551 5.35217 5.35217 1.14551 10.5413 1.14551C15.7305 1.14551 19.9372 5.35217 19.9372 10.5413C19.9372 15.7305 15.7305 19.9372 10.5413 19.9372C5.35217 19.9372 1.14551 15.7305 1.14551 10.5413Z" fill="#060606" fill-opacity="0.3"/>
<path fill-rule="evenodd" clip-rule="evenodd" d="M17.8469 17.8469C18.1154 17.5784 18.5507 17.5784 18.8191 17.8469L20.6525 19.6802C20.921 19.9487 20.921 20.384 20.6525 20.6525C20.384 20.921 19.9487 20.921 19.6802 20.6525L17.8469 18.8191C17.5784 18.5507 17.5784 18.1154 17.8469 17.8469Z" fill="#060606" fill-opacity="0.3"/>
</svg>
