<svg width="22" height="22" viewBox="0 0 22 22" fill="none" xmlns="http://www.w3.org/2000/svg">
<path d="M6.25647 19.9375H15.7431C16.5939 19.9375 17.2706 19.2375 17.1791 18.431C16.5883 13.2344 13.0623 13.3203 13.0623 11C13.0623 8.67969 16.6334 8.80859 17.1787 3.56898C17.2646 2.76203 16.5939 2.0625 15.7431 2.0625H6.25647C5.40569 2.0625 4.73666 2.76203 4.82088 3.56898C5.36615 8.80859 8.93729 8.63672 8.93729 11C8.93729 13.3633 5.41127 13.2344 4.82088 18.431C4.72893 19.2375 5.40569 19.9375 6.25647 19.9375Z" stroke="white" stroke-linecap="round" stroke-linejoin="round"/>
<path d="M14.7515 18.5625H7.26761C6.59729 18.5625 6.40823 17.7891 6.87831 17.3095C8.01612 16.1562 10.3128 15.3304 10.3128 14.0078V9.625C10.3128 8.77207 8.67999 8.12109 7.66979 6.7375C7.50307 6.50934 7.51983 6.1875 7.9435 6.1875H14.0764C14.4378 6.1875 14.516 6.50676 14.3514 6.73535C13.3558 8.12109 11.6878 8.76777 11.6878 9.625V14.0078C11.6878 15.3196 14.0816 16.0273 15.1425 17.3108C15.57 17.8282 15.4205 18.5625 14.7515 18.5625Z" fill="white"/>
</svg>
