<svg width="22" height="22" viewBox="0 0 22 22" fill="none" xmlns="http://www.w3.org/2000/svg">
<path d="M11.0257 15.7942C11.2286 15.7942 11.3997 15.7245 11.539 15.5852C11.6783 15.4458 11.748 15.2747 11.748 15.0718C11.748 14.8689 11.6777 14.6978 11.5372 14.5585C11.3978 14.4192 11.2267 14.3495 11.0238 14.3495C10.8209 14.3495 10.6498 14.4195 10.5105 14.5594C10.3712 14.6994 10.3018 14.8705 10.3024 15.0728C10.3024 15.2756 10.3721 15.4468 10.5114 15.5861C10.652 15.7254 10.8234 15.7951 11.0257 15.7951M11.0028 19.25C9.86242 19.25 8.78992 19.0337 7.78525 18.601C6.78119 18.1677 5.90761 17.5798 5.1645 16.8373C4.42139 16.0948 3.83319 15.2222 3.39992 14.2193C2.96664 13.2165 2.75 12.1443 2.75 11.0028C2.75 9.8612 2.96664 8.78869 3.39992 7.78525C3.83258 6.78119 4.41956 5.90761 5.16083 5.1645C5.90211 4.42139 6.77508 3.83319 7.77975 3.39992C8.78442 2.96664 9.85692 2.75 10.9972 2.75C12.1376 2.75 13.2101 2.96664 14.2148 3.39992C15.2188 3.83258 16.0924 4.41986 16.8355 5.16175C17.5786 5.90364 18.1668 6.77661 18.6001 7.78067C19.0334 8.78472 19.25 9.85692 19.25 10.9972C19.25 12.1376 19.0337 13.2101 18.601 14.2148C18.1683 15.2194 17.5804 16.093 16.8373 16.8355C16.0942 17.578 15.2216 18.1662 14.2193 18.6001C13.2171 19.034 12.1449 19.2506 11.0028 19.25ZM11 18.3333C13.0472 18.3333 14.7812 17.6229 16.2021 16.2021C17.6229 14.7812 18.3333 13.0472 18.3333 11C18.3333 8.95278 17.6229 7.21875 16.2021 5.79792C14.7812 4.37708 13.0472 3.66667 11 3.66667C8.95278 3.66667 7.21875 4.37708 5.79792 5.79792C4.37708 7.21875 3.66667 8.95278 3.66667 11C3.66667 13.0472 4.37708 14.7812 5.79792 16.2021C7.21875 17.6229 8.95278 18.3333 11 18.3333ZM11.0568 7.09408C11.5213 7.09408 11.9209 7.238 12.2558 7.52583C12.5919 7.81367 12.76 8.17392 12.76 8.60658C12.76 8.94269 12.6653 9.24642 12.4758 9.51775C12.2876 9.78908 12.0694 10.0393 11.8213 10.2685C11.5072 10.5533 11.2307 10.8665 10.9918 11.2081C10.7528 11.5503 10.6156 11.9271 10.5802 12.3383C10.5686 12.4581 10.6061 12.5583 10.6929 12.639C10.7785 12.7191 10.8793 12.7591 10.9954 12.7591C11.1182 12.7591 11.2218 12.7181 11.3062 12.6363C11.3899 12.5538 11.4431 12.4566 11.4657 12.3448C11.5268 12.0361 11.6496 11.7614 11.8342 11.5207C12.0181 11.2805 12.2204 11.0532 12.441 10.8387C12.7582 10.5233 13.0396 10.1796 13.2853 9.80742C13.5315 9.43586 13.6547 9.02122 13.6547 8.5635C13.6547 7.89067 13.3992 7.33517 12.8883 6.897C12.3781 6.45944 11.7792 6.24067 11.0917 6.24067C10.582 6.24067 10.1075 6.35983 9.66808 6.59817C9.22931 6.8365 8.87822 7.1665 8.61483 7.58817C8.55494 7.68961 8.53569 7.79442 8.55708 7.90258C8.57847 8.01075 8.63653 8.09295 8.73125 8.14917C8.85225 8.21272 8.97447 8.22739 9.09792 8.19317C9.22136 8.15894 9.33014 8.08806 9.42425 7.9805C9.62775 7.7275 9.86731 7.51667 10.1429 7.348C10.4179 7.17811 10.7226 7.09408 11.0568 7.09408Z" fill="black"/>
</svg>
