<svg width="22" height="22" viewBox="0 0 22 22" fill="none" xmlns="http://www.w3.org/2000/svg">
<g clip-path="url(#clip0_1102_3735)">
<path fill-rule="evenodd" clip-rule="evenodd" d="M8.06674 0.733333C8.06674 0.538841 8.14401 0.352315 8.28153 0.214788C8.41906 0.0772617 8.60558 0 8.80008 0L13.2001 0C13.3946 0 13.5811 0.0772617 13.7186 0.214788C13.8561 0.352315 13.9334 0.538841 13.9334 0.733333C13.9334 0.927825 13.8561 1.11435 13.7186 1.25188C13.5811 1.38941 13.3946 1.46667 13.2001 1.46667H11.7334V3.10933C13.2982 3.22898 14.8076 3.74151 16.1217 4.59947C16.152 4.55971 16.1843 4.52153 16.2185 4.48507L17.3918 3.31173C17.4769 3.2266 17.578 3.15907 17.6892 3.113C17.8005 3.06693 17.9197 3.04321 18.0401 3.04321C18.1605 3.04321 18.2797 3.06693 18.3909 3.113C18.5021 3.15907 18.6032 3.2266 18.6883 3.31173C18.7735 3.39686 18.841 3.49793 18.8871 3.60916C18.9332 3.72039 18.9569 3.83961 18.9569 3.96C18.9569 4.08039 18.9332 4.19961 18.8871 4.31084C18.841 4.42207 18.7735 4.52314 18.6883 4.60827L17.5517 5.74493C19.0878 7.24254 20.0645 9.22114 20.3192 11.3513C20.574 13.4814 20.0914 15.6345 18.9518 17.4521C17.8122 19.2697 16.0844 20.6421 14.056 21.3408C12.0277 22.0395 9.82122 22.0223 7.804 21.2921C5.78679 20.5619 4.08057 19.1627 2.96944 17.3276C1.85831 15.4925 1.40932 13.3321 1.69724 11.2062C1.98516 9.08027 2.9926 7.11713 4.55183 5.64364C6.11105 4.17015 8.12797 3.27522 10.2667 3.10787V1.46667H8.80008C8.60558 1.46667 8.41906 1.38941 8.28153 1.25188C8.14401 1.11435 8.06674 0.927825 8.06674 0.733333ZM3.08008 12.4667C3.08008 10.3662 3.9145 8.35167 5.39979 6.86638C6.88508 5.38109 8.89956 4.54667 11.0001 4.54667C13.1006 4.54667 15.1151 5.38109 16.6004 6.86638C18.0857 8.35167 18.9201 10.3662 18.9201 12.4667C18.9201 14.5672 18.0857 16.5817 16.6004 18.067C15.1151 19.5522 13.1006 20.3867 11.0001 20.3867C8.89956 20.3867 6.88508 19.5522 5.39979 18.067C3.9145 16.5817 3.08008 14.5672 3.08008 12.4667ZM11.7334 6.6C11.7334 6.40551 11.6561 6.21898 11.5186 6.08146C11.3811 5.94393 11.1946 5.86667 11.0001 5.86667C10.8056 5.86667 10.6191 5.94393 10.4815 6.08146C10.344 6.21898 10.2667 6.40551 10.2667 6.6V13.9333C10.2667 14.1278 10.344 14.3144 10.4815 14.4519C10.6191 14.5894 10.8056 14.6667 11.0001 14.6667C11.1946 14.6667 11.3811 14.5894 11.5186 14.4519C11.6561 14.3144 11.7334 14.1278 11.7334 13.9333V6.6Z" fill="white"/>
</g>
<defs>
<clipPath id="clip0_1102_3735">
<rect width="22" height="22" fill="white"/>
</clipPath>
</defs>
</svg>
