<svg width="22" height="22" viewBox="0 0 22 22" fill="none" xmlns="http://www.w3.org/2000/svg">
<path fill-rule="evenodd" clip-rule="evenodd" d="M6.28801 1.14545H6.40442C6.72617 1.14545 6.93334 1.14545 7.13592 1.16378C7.96202 1.24104 8.74884 1.55272 9.40376 2.06211H15.1778C15.5528 2.06211 15.8076 2.06211 16.0313 2.09145C16.8124 2.19455 17.5344 2.56287 18.0764 3.13474C18.6184 3.70661 18.9475 4.44733 19.0086 5.23286C19.2662 5.34937 19.5042 5.50489 19.7144 5.69395C19.8061 5.77523 19.892 5.86078 19.972 5.95061C20.4569 6.48961 20.6632 7.14503 20.7603 7.91595C20.8538 8.66028 20.8538 9.60078 20.8538 10.7677V12.8852C20.8538 14.5691 20.8538 15.9038 20.7136 16.9479C20.5688 18.0222 20.2644 18.8921 19.5788 19.5787C18.8922 20.2644 18.0223 20.5687 16.9479 20.7135C15.9029 20.8538 14.5692 20.8538 12.8843 20.8538H9.11501C7.43017 20.8538 6.09551 20.8538 5.05142 20.7135C3.97709 20.5687 3.10717 20.2644 2.42059 19.5787C1.73492 18.8921 1.43059 18.0222 1.28576 16.9479C1.14551 15.9029 1.14551 14.5691 1.14551 12.8843V6.28795C1.14551 5.55736 1.14551 5.09353 1.22067 4.69295C1.38278 3.83185 1.80091 3.0397 2.42041 2.42003C3.03991 1.80037 3.83196 1.38203 4.69301 1.2197C5.09451 1.14453 5.55834 1.14453 6.28801 1.14453M17.5511 4.8827C17.4337 4.50733 17.2114 4.17336 16.9105 3.92016C16.6095 3.66695 16.2424 3.50508 15.8525 3.45361C15.7297 3.43803 15.572 3.4362 15.1247 3.4362H10.8264C11.4158 4.02286 11.6835 4.2667 11.9869 4.43536C12.1874 4.54659 12.3979 4.63398 12.6185 4.69753C12.9971 4.80478 13.4123 4.8112 14.5087 4.8112H14.8983C15.9634 4.8112 16.8407 4.8112 17.5511 4.8827ZM6.37051 2.52045C5.52992 2.52045 5.20542 2.5232 4.94692 2.57178C4.35827 2.68306 3.81683 2.96922 3.3933 3.39292C2.96976 3.81662 2.68381 4.35816 2.57276 4.94686C2.52326 5.20536 2.52051 5.52986 2.52051 6.37045V12.8329C2.52051 14.581 2.52234 15.8231 2.64884 16.7654C2.77259 17.6867 3.00542 18.2184 3.39317 18.6061C3.78092 18.9939 4.31259 19.2267 5.23476 19.3504C6.17709 19.4769 7.41826 19.4788 9.16634 19.4788H12.833C14.5811 19.4788 15.8232 19.4769 16.7655 19.3504C17.6868 19.2267 18.2184 18.9939 18.6062 18.6061C18.9939 18.2184 19.2268 17.6867 19.3505 16.7645C19.477 15.8231 19.4788 14.581 19.4788 12.8329V10.8144C19.4788 9.58978 19.4779 8.73636 19.3963 8.08736C19.3166 7.45578 19.1708 7.1157 18.9499 6.87003C18.9017 6.81569 18.8503 6.76427 18.7959 6.71603C18.5503 6.49511 18.2093 6.34936 17.5786 6.26961C16.9305 6.18803 16.0762 6.18711 14.8515 6.18711H14.4078C13.4472 6.18711 12.8275 6.18711 12.2418 6.02028C11.9209 5.92861 11.6102 5.80028 11.3178 5.63803C10.7861 5.34103 10.3479 4.90378 9.66776 4.22361L9.59717 4.15211L9.09301 3.64795C8.9458 3.49404 8.79196 3.34663 8.63192 3.20611C8.17075 2.82371 7.60499 2.58923 7.00851 2.53328C6.79613 2.51975 6.58326 2.51547 6.37051 2.52045ZM11.2288 9.16628C11.2288 8.98395 11.3013 8.80908 11.4302 8.68015C11.5591 8.55122 11.734 8.47878 11.9163 8.47878H16.4997C16.682 8.47878 16.8569 8.55122 16.9858 8.68015C17.1147 8.80908 17.1872 8.98395 17.1872 9.16628C17.1872 9.34862 17.1147 9.52349 16.9858 9.65242C16.8569 9.78135 16.682 9.85378 16.4997 9.85378H11.9163C11.734 9.85378 11.5591 9.78135 11.4302 9.65242C11.3013 9.52349 11.2288 9.34862 11.2288 9.16628Z" fill="black"/>
</svg>
